<svg width="90px" height="76px" viewBox="0 0 90 76" version="1.1" xmlns="http://www.w3.org/2000/svg" xmlns:xlink="http://www.w3.org/1999/xlink" xmlns:sketch="http://www.bohemiancoding.com/sketch/ns">
    <g id="Page-1" stroke="none" stroke-width="1" fill="none" fill-rule="evenodd" sketch:type="MSPage">
        <g id="crossed-rackets" sketch:type="MSLayerGroup" transform="translate(0.000000, -1.000000)" fill="#000000">
            <g id="Group" transform="translate(0.000000, 0.637840)" sketch:type="MSShapeGroup">
                <path d="M72.951247,0.49852 C72.807499,0.49652 72.663477,0.49752 72.519215,0.49885 C69.749223,0.53365 66.884916,1.21759 64.066634,2.57141 C59.66831,4.68423 54.999386,8.77498 52.113216,13.04443 C50.94963,14.76569 50.30855,16.02035 49.636556,17.89255 C48.562608,20.88462 48.433489,22.00635 48.40137,28.61769 C48.3737,34.31123 48.33969,34.85872 47.921303,36.3271 C46.881033,39.978 45.628035,41.75 40.225097,47.2124 L35.845115,51.6407 L37.396799,53.1921 L38.948145,54.7435 L43.26847,50.4121 C45.644737,48.0299 48.176873,45.6709 48.895261,45.1697 C50.705425,43.9066 51.809708,43.372 53.801784,42.7947 C56.183356,42.1046 58.877984,41.8774 62.356091,42.0735 C70.658172,42.5417 75.739436,40.6832 81.51999,35.06427 C85.736692,30.96543 88.296591,26.89147 89.53959,22.3011 C90.122235,20.14951 90.158631,15.73489 89.61024,13.74774 C88.727479,10.54891 87.219601,7.93562 84.930721,5.63865 C81.597713,2.29385 77.407119,0.55141 72.951244,0.49853 L72.951247,0.49852 Z M72.908227,2.6006 C75.466679,2.6016 75.867042,2.653 77.329024,3.16293 C78.213184,3.47131 79.569565,4.09498 80.343204,4.54883 C81.970219,5.5033 84.632182,8.08606 85.747059,9.79193 C90.178321,16.57218 88.209057,25.41407 80.54415,33.15246 C77.07212,36.6578 73.839343,38.5495 69.952755,39.3504 C67.729158,39.8085 63.344418,39.7594 61.283539,39.2534 C55.475303,37.8263 51.596575,33.20653 50.890582,26.87513 C50.341455,21.95052 51.742478,16.82542 54.702258,12.93015 C57.146476,9.71337 61.775984,5.91921 65.234944,4.29829 C68.119281,2.94664 69.690465,2.59911 72.908227,2.60093 L72.908227,2.6006 Z M73.743098,4.40377 L73.627241,5.70992 L73.511063,7.01606 L71.605538,7.07446 C69.423819,7.14136 69.214144,7.01666 69.158089,5.62106 C69.129009,4.89692 69.112109,4.92961 69.00738,5.91086 L68.88932,7.01606 L66.983796,7.07446 C65.343246,7.12476 65.041056,7.08246 64.812011,6.77304 C64.559382,6.43139 64.535638,6.43097 64.34638,6.76504 C64.236744,6.95845 63.948106,7.12577 63.70493,7.13679 C63.29677,7.15529 63.301464,7.16729 63.76521,7.29628 C64.261979,7.43447 64.267573,7.46075 64.267573,9.63761 L64.267573,11.83891 L62.25812,11.83891 L60.248667,11.83891 L60.131861,10.63323 C60.029861,9.58154 60.010619,9.53829 59.981152,10.29477 C59.927352,11.67601 59.695585,11.93491 58.483482,11.96764 L57.435432,11.99584 L58.478145,12.12269 C59.051595,12.19249 59.578618,12.30729 59.649287,12.37795 C59.897077,12.62575 59.979062,15.92495 59.748187,16.35636 C59.540426,16.74455 59.376486,16.77205 57.575148,16.719 L55.626927,16.6615 L55.50636,15.75725 C55.42838,15.17213 55.375183,15.05266 55.355651,15.41878 C55.314721,16.18621 54.981828,16.75849 54.565051,16.77767 C54.289306,16.79037 54.280529,16.81517 54.521731,16.90138 C55.134872,17.12051 55.325513,17.64769 55.325513,19.12434 C55.325513,21.16191 55.180623,21.37483 53.761274,21.42077 L52.612751,21.45817 L53.71795,21.52947 C55.143601,21.62157 55.325513,21.8724 55.325513,23.74615 C55.325513,25.84055 55.20554,25.99694 53.560329,26.04415 L52.21086,26.08275 L53.517005,26.15185 C54.437061,26.20035 54.897387,26.31907 55.074331,26.55343 C55.363291,26.93618 55.416228,29.7711 55.142461,30.20342 C55.045151,30.35709 54.617077,30.55003 54.191121,30.63231 L53.416533,30.78208 L54.163166,30.80498 C55.09044,30.83368 55.31283,31.19959 55.36162,32.77425 C55.39729,33.92592 55.39948,33.92098 55.512329,32.43578 L55.626932,30.92869 L57.575153,30.87119 C59.395171,30.81759 59.539016,30.84239 59.755732,31.24734 C60.012958,31.72796 59.95179,34.70831 59.679112,34.98178 C59.587692,35.07348 58.909717,35.202 58.172649,35.2675 L56.832601,35.3865 L58.182069,35.4182 C59.624278,35.452 59.912337,35.65683 59.97582,36.6926 C59.99157,36.9486 60.05932,36.7962 60.126529,36.3542 L60.248672,35.55039 L62.258125,35.55039 L64.267578,35.55039 L64.355498,36.8565 C64.411928,37.6955 64.466452,37.9111 64.508088,37.4594 C64.543748,37.0725 64.622144,36.4591 64.682026,36.0961 L64.790987,35.4361 L66.840308,35.4932 L68.889645,35.5503 L69.006434,36.756 C69.118787,37.9143 69.124686,37.9247 69.157143,37.0235 C69.214503,35.43081 69.187303,35.44982 71.429401,35.44982 C73.309831,35.44982 73.433324,35.47532 73.589869,35.8985 L73.755962,36.3475 L73.898199,35.8985 C73.976539,35.65164 74.19293,35.44494 74.378893,35.43915 C74.650844,35.43115 74.628579,35.36685 74.264932,35.11324 C73.854875,34.82721 73.813159,34.63661 73.81594,33.06422 C73.81754,32.11065 73.89296,31.21379 73.983287,31.07141 C74.103533,30.8819 74.681388,30.82807 76.140315,30.87047 L78.13313,30.92857 L78.24992,32.13425 C78.362272,33.2926 78.368172,33.303 78.400629,32.40175 C78.453889,30.92282 78.532947,30.83254 79.812278,30.79168 L80.946365,30.75558 L79.946654,30.67838 C79.396851,30.63598 78.831713,30.50557 78.690745,30.38858 C78.423649,30.16691 78.318514,27.14399 78.556369,26.52415 C78.656069,26.26432 79.036854,26.20641 80.641796,26.20641 C82.723767,26.20641 82.941543,26.29511 83.109967,27.21113 C83.187247,27.63146 83.206997,27.60584 83.229908,27.05414 C83.246808,26.64697 83.38335,26.34636 83.586899,26.26826 C83.890745,26.15166 83.890198,26.12253 83.579299,25.89526 C83.295725,25.6879 83.251259,25.33375 83.299856,23.66696 L83.357636,21.68514 L84.563308,21.57399 L85.76898,21.46284 L84.563308,21.37304 L83.357636,21.28324 L83.357636,19.17331 L83.357636,17.06338 L84.764253,16.97238 L86.17087,16.88168 L84.764253,16.77148 L83.357636,16.66158 L83.300166,14.56798 C83.237456,12.29032 83.288916,12.17113 84.362363,12.11488 C84.876944,12.08788 84.847526,12.06538 84.161418,11.96103 L83.357637,11.8389 L83.242407,10.43228 L83.127177,9.02566 L83.091697,10.24138 C83.072177,10.91003 82.947707,11.56561 82.815083,11.69823 C82.660693,11.85261 81.873341,11.93937 80.626339,11.93937 C79.035607,11.93937 78.656222,11.88087 78.556602,11.62131 C78.32926,11.02886 78.423495,7.81088 78.675609,7.55876 C78.808233,7.42614 79.463813,7.30053 80.132463,7.27963 L81.348182,7.24163 L80.149407,7.16783 C78.782159,7.08363 78.445519,6.8842 78.408095,6.13736 C78.386555,5.7072 78.358615,5.73989 78.257386,6.31287 L78.133057,7.01618 L76.254218,7.07428 C75.041505,7.11178 74.275533,7.04938 74.094056,6.89877 C73.923365,6.75712 73.799245,6.22097 73.778186,5.53454 L73.743026,4.40391 L73.743098,4.40377 Z M65.993505,7.34228 C66.255007,7.34028 66.578851,7.34728 66.983474,7.35958 L68.88932,7.41798 L68.88932,9.62838 L68.88932,11.83878 L66.941099,11.89628 C65.17585,11.94828 64.972879,11.91648 64.780936,11.55781 C64.479406,10.99437 64.510978,8.07626 64.823316,7.64911 C64.985406,7.42745 65.209018,7.34756 65.993509,7.34235 L65.993505,7.34228 Z M70.615248,7.34228 C70.87675,7.34028 71.200593,7.34728 71.605217,7.35958 L73.511063,7.41798 L73.511063,9.62838 L73.511063,11.83878 L71.598626,11.89558 C70.2829,11.93478 69.608994,11.87518 69.438464,11.70468 C69.099123,11.36533 69.104412,8.11493 69.445064,7.64904 C69.607154,7.42738 69.830766,7.34749 70.615257,7.34228 L70.615248,7.34228 Z M75.430091,7.35028 C75.675276,7.34728 75.950475,7.3506 76.253645,7.36028 L78.132806,7.41838 L78.132806,9.62878 L78.132806,11.83918 L76.097294,11.89598 C74.374404,11.94418 74.042555,11.90298 73.937131,11.62847 C73.868621,11.44993 73.812481,10.50855 73.812481,9.53644 C73.812481,8.26704 73.891541,7.70307 74.093483,7.53547 C74.229595,7.42251 74.694534,7.35928 75.430091,7.35054 L75.430091,7.35028 Z M76.055224,12.13058 C76.963159,12.13958 77.863957,12.23894 78.015068,12.42101 C78.166597,12.6036 78.228134,13.39447 78.190581,14.68164 L78.132801,16.66158 L76.220364,16.71838 C74.904638,16.75758 74.230715,16.69798 74.060201,16.52748 C73.726793,16.19407 73.721327,12.71375 74.053601,12.38142 C74.232362,12.20266 75.147258,12.12145 76.05521,12.13055 L76.055224,12.13058 Z M71.383245,12.14058 L71.383245,12.14058 C72.659649,12.14058 73.225592,12.21958 73.39302,12.42128 C73.544548,12.60386 73.606086,13.39473 73.568533,14.68191 L73.510753,16.66185 L71.562211,16.71935 C69.796946,16.77135 69.593975,16.73955 69.402048,16.38088 C69.129341,15.87131 69.126239,13.03701 69.398048,12.52932 C69.579623,12.19003 69.831978,12.14062 71.383019,12.14062 L71.383245,12.14058 Z M80.778066,12.14058 C83.01089,12.14058 83.055966,12.18618 83.055966,14.45145 C83.055966,16.71674 83.010886,16.76232 80.778066,16.76232 C79.597987,16.76232 78.828205,16.67402 78.675358,16.52119 C78.523138,16.36897 78.434224,15.60577 78.434224,14.45145 C78.434224,13.29713 78.523134,12.53393 78.675358,12.38171 C78.828205,12.22887 79.597987,12.14058 80.778066,12.14058 L80.778066,12.14058 Z M66.735749,12.14358 L66.735749,12.14358 C67.69892,12.14558 68.603286,12.22038 68.745508,12.31061 C68.935666,12.43126 68.988844,13.02858 68.946453,14.56811 L68.889003,16.66171 L66.94046,16.71921 C65.175211,16.77121 64.972224,16.73941 64.780297,16.38075 C64.50759,15.87117 64.504488,13.03688 64.776297,12.52919 C64.957743,12.19015 65.207992,12.14094 66.735515,12.14363 L66.735749,12.14358 Z M62.358597,12.14758 C63.176894,12.15838 63.974004,12.21558 64.124086,12.31085 C64.314245,12.4315 64.367423,13.02881 64.325032,14.56834 L64.267572,16.66194 L62.348544,16.71874 C61.293115,16.75014 60.366259,16.71274 60.288855,16.63524 C60.211435,16.55784 60.148193,15.56982 60.148193,14.4396 C60.148193,12.75114 60.204783,12.3627 60.465944,12.26248 C60.700873,12.17238 61.540294,12.13678 62.358592,12.14757 L62.358597,12.14758 Z M80.778066,16.96336 C82.998625,16.96336 83.055966,17.01886 83.055966,19.17376 C83.055966,21.32866 82.998626,21.38416 80.778066,21.38416 C79.597987,21.38416 78.828205,21.29586 78.675358,21.14302 C78.525196,20.99286 78.434224,20.24993 78.434224,19.17376 C78.434224,18.09758 78.525194,17.35466 78.675358,17.20449 C78.828205,17.05165 79.597987,16.96336 80.778066,16.96336 L80.778066,16.96336 Z M65.993505,16.98816 C66.255007,16.98616 66.578851,16.99316 66.983474,17.00546 L68.88932,17.06386 L68.88932,19.17379 L68.88932,21.28371 L66.941099,21.34121 C65.17585,21.39321 64.972879,21.36141 64.780936,21.00274 C64.480965,20.44223 64.512007,17.72073 64.823316,17.29499 C64.985406,17.07333 65.209018,16.99344 65.993509,16.98823 L65.993505,16.98816 Z M70.615248,16.98816 C70.87675,16.98616 71.200593,16.99316 71.605217,17.00546 L73.511063,17.06386 L73.511063,19.17379 L73.511063,21.28371 L71.562842,21.34121 C69.797593,21.39321 69.594622,21.36141 69.402679,21.00274 C69.102708,20.44223 69.13375,17.72073 69.445059,17.29499 C69.607149,17.07333 69.830761,16.99344 70.615252,16.98823 L70.615248,16.98816 Z M58.348789,16.9888 C59.890088,16.9762 59.899219,17.22824 59.899219,19.17377 C59.899219,21.36758 59.882129,21.38417 57.636381,21.38417 C56.226324,21.38417 55.687469,21.31327 55.612492,21.11792 C55.556312,20.97148 55.536482,19.9994 55.568522,18.95776 L55.626922,17.06385 L57.589901,17.00605 C57.877059,16.99805 58.128611,16.99055 58.348783,16.98875 L58.348789,16.9888 Z M75.430091,16.9958 C75.675276,16.9928 75.950475,16.99612 76.253645,17.0058 L78.132806,17.0639 L78.190586,19.05671 C78.232976,20.51564 78.179176,21.0935 77.989641,21.21374 C77.575292,21.47662 74.328899,21.41837 74.05362,21.14304 C73.695841,20.78526 73.729037,17.48343 74.09349,17.18096 C74.229602,17.068 74.694541,17.00477 75.430098,16.99603 L75.430091,16.9958 Z M60.248671,17.0636 L62.258124,17.0636 L64.267577,17.0636 L64.267577,19.17353 L64.267577,21.28345 L62.304904,21.34095 C60.793795,21.38525 60.317876,21.33595 60.237048,21.12494 C60.179308,20.97447 60.158228,19.9992 60.190268,18.95755 L60.248668,17.06364 L60.248671,17.0636 Z M59.549751,21.57012 L59.765453,22.13025 C60.076372,22.93732 59.915551,25.57477 59.540973,25.81163 C59.175639,26.04265 56.126799,26.06168 55.769792,25.83523 C55.580276,25.71499 55.526439,25.13713 55.568847,23.67821 L55.626927,21.6854 L57.588346,21.6279 L59.54975,21.5701 L59.549751,21.57012 Z M80.778066,21.58492 C82.998625,21.58492 83.055966,21.64042 83.055966,23.79532 C83.055966,25.95022 82.998626,26.00572 80.778066,26.00572 C79.597987,26.00572 78.828205,25.91742 78.675358,25.76459 C78.525196,25.61442 78.434224,24.8715 78.434224,23.79532 C78.434224,22.71915 78.525194,21.97622 78.675358,21.82606 C78.828205,21.67321 79.597987,21.58492 80.778066,21.58492 L80.778066,21.58492 Z M65.993505,21.60972 C66.255007,21.60772 66.578851,21.61472 66.983474,21.62702 L68.88932,21.68542 L68.9471,23.67823 C68.98949,25.13715 68.93569,25.71501 68.746155,25.83525 C68.603773,25.92555 67.69394,26.00091 66.724146,26.0026 C65.015066,26.0056 64.954879,25.9898 64.764913,25.49019 C64.481773,24.74542 64.521207,22.32966 64.823313,21.9165 C64.985403,21.69484 65.209015,21.61495 65.993506,21.60975 L65.993505,21.60972 Z M70.615248,21.60972 C70.87675,21.60772 71.200593,21.61472 71.605217,21.62702 L73.511063,21.68542 L73.568843,23.67823 C73.611233,25.13715 73.557433,25.71501 73.367897,25.83525 C73.225516,25.92555 72.320972,26.00091 71.357817,26.0026 C69.830279,26.0056 69.580046,25.9561 69.3986,25.61704 C69.101603,25.06209 69.135796,22.33945 69.44506,21.9165 C69.60715,21.69484 69.830762,21.61495 70.615253,21.60975 L70.615248,21.60972 Z M75.430091,21.61772 C75.675276,21.61472 75.950475,21.61804 76.253645,21.62772 L78.132806,21.68582 L78.190886,23.56466 C78.228346,24.77736 78.165986,25.54334 78.015372,25.72482 C77.712909,26.08927 74.411393,26.12279 74.053614,25.76502 C73.695835,25.40724 73.729031,22.10541 74.093484,21.80294 C74.229596,21.68998 74.694535,21.62675 75.430092,21.61801 L75.430091,21.61772 Z M60.248671,21.68552 L62.258124,21.68552 L64.267577,21.68552 L64.325357,23.67833 C64.367747,25.13726 64.313947,25.71512 64.124412,25.83536 C63.98203,25.92566 63.142287,25.99956 62.258128,25.99956 C61.373968,25.99956 60.533921,25.92566 60.391539,25.83536 C60.202023,25.71512 60.148186,25.13726 60.190593,23.67833 L60.248673,21.68552 L60.248671,21.68552 Z M58.653358,26.22908 C59.471719,26.23208 59.592881,26.32218 59.755406,26.62595 C60.093814,27.25827 59.930759,30.18713 59.543481,30.43198 C59.176249,30.66416 56.128118,30.68445 55.769792,30.45708 C55.580276,30.33684 55.526439,29.75898 55.568847,28.30006 L55.626927,26.30724 L57.575148,26.24974 C58.030153,26.23634 58.380569,26.22794 58.653357,26.22904 L58.653358,26.22908 Z M65.86289,26.22908 C66.135678,26.22808 66.486094,26.23608 66.941099,26.24978 L68.88932,26.30728 L68.9471,28.3001 C68.98949,29.75902 68.93569,30.33688 68.746155,30.45712 C68.387813,30.68447 65.340019,30.66418 64.972771,30.43202 C64.585493,30.18717 64.422116,27.2583 64.760524,26.62599 C64.923081,26.32227 65.044532,26.23246 65.862894,26.22912 L65.86289,26.22908 Z M70.808348,26.23948 C71.053534,26.23648 71.328732,26.2398 71.631902,26.24948 L73.511063,26.30758 L73.569143,28.18642 C73.606603,29.39912 73.544243,30.16511 73.393629,30.34658 C73.045592,30.76595 69.932836,30.73831 69.506591,30.31208 C69.08033,29.88582 69.052374,26.77277 69.471741,26.42473 C69.607853,26.31177 70.072793,26.24853 70.808349,26.23979 L70.808348,26.23948 Z M75.430091,26.23948 C75.675276,26.23648 75.950475,26.2398 76.253645,26.24948 L78.132806,26.30758 L78.190886,28.18642 C78.228346,29.39912 78.165986,30.16511 78.015372,30.34658 C77.667335,30.76595 74.554579,30.73831 74.128334,30.31208 C73.702072,29.88582 73.674117,26.77277 74.093484,26.42473 C74.229596,26.31177 74.694535,26.24853 75.430092,26.23979 L75.430091,26.23948 Z M60.248671,26.30728 L62.258124,26.30728 L64.267577,26.30728 L64.325357,28.30009 C64.367747,29.75901 64.313947,30.33687 64.124412,30.45711 C63.98203,30.54741 63.142287,30.62132 62.258128,30.62132 C61.373968,30.62132 60.533921,30.54742 60.391539,30.45711 C60.202023,30.33687 60.148186,29.75901 60.190593,28.30009 L60.248673,26.30728 L60.248671,26.30728 Z M66.223965,30.85492 C66.445953,30.8554 66.697617,30.86192 66.983474,30.87062 L68.88932,30.92902 L68.9471,32.92184 C68.98949,34.38076 68.93569,34.95862 68.746155,35.07886 C68.603773,35.16916 67.744965,35.24452 66.837479,35.24621 C65.396637,35.24921 65.135569,35.19351 64.77779,34.80947 C64.455618,34.46365 64.368054,34.43774 64.368054,34.68764 C64.368054,34.86244 64.225126,35.06013 64.050303,35.12721 C63.58022,35.3076 60.691928,35.26945 60.391539,35.07881 C60.202023,34.95857 60.148186,34.38071 60.190593,32.92179 L60.248673,30.92897 L62.258126,30.92897 L64.267579,30.92897 L64.381234,32.53654 L64.49521,34.1441 L64.53194,32.82602 C64.57935,31.13065 64.670046,30.85127 66.223964,30.85488 L66.223965,30.85492 Z M70.808348,30.86092 C71.053534,30.85792 71.328732,30.86125 71.631902,30.87092 L73.511063,30.92902 L73.568843,32.92183 C73.611233,34.38076 73.557433,34.95862 73.367897,35.07886 C73.225516,35.16916 72.369697,35.24452 71.465813,35.24621 C70.23659,35.24821 69.742763,35.16971 69.506596,34.93349 C69.080335,34.50723 69.052379,31.39418 69.471746,31.04614 C69.607858,30.93318 70.072798,30.86994 70.808354,30.8612 L70.808348,30.86092 Z M33.853874,53.0711 L28.508101,58.1569 L36.113255,58.1569 L37.240429,56.7584 L33.853874,53.0711 L33.853874,53.0711 Z M25.897065,60.5682 L23.174256,63.4264 L30.900604,63.5824 L33.623413,60.7243 L25.897065,60.5682 L25.897065,60.5682 Z M20.45082,65.9938 L17.658933,68.807 L25.897692,68.807 L28.689578,65.9938 L20.45082,65.9938 L20.45082,65.9938 Z M15.373188,71.2183 C15.045711,71.686 14.3579,72.2172 14.332661,72.8111 C14.332661,73.6876 16.559328,75.9378 17.711677,76.226 C17.746557,76.236 17.972633,76.137 18.214041,76.0087 C18.777958,75.7092 23.174256,71.6145 23.174256,71.3888 L15.373188,71.2183 L15.373188,71.2183 Z" id="Shape"></path>
                <path d="M17.048624,0.49857 C12.59275,0.55147 8.402461,2.29389 5.069453,5.63869 C2.7805727,7.93566 1.2723735,10.54895 0.3896126,13.74778 C-0.1587753,15.73493 -0.1220586,20.14956 0.4605866,22.30114 C1.7035862,26.89151 4.2634851,30.96547 8.480186,35.06431 C14.260741,40.6833 19.3417,42.5418 27.64378,42.0736 C31.121887,41.8774 33.8165,42.1046 36.198072,42.7948 C36.9131,43.002 37.511933,43.2047 38.071895,43.4366 L42.881707,38.6163 C42.571608,37.907 42.318063,37.1677 42.078552,36.3271 C41.660168,34.85876 41.626457,34.31127 41.598791,28.61773 C41.566671,22.00639 41.437569,20.88466 40.36362,17.89259 C39.691627,16.02039 39.050242,14.76573 37.886656,13.04447 C35.000486,8.77502 30.331545,4.68427 25.933221,2.57145 C23.114939,1.21763 20.250648,0.5337 17.480657,0.49889 C17.336394,0.49689 17.192372,0.49689 17.048624,0.49857 L17.048624,0.49857 Z M17.091624,2.60065 C20.309386,2.59865 21.880586,2.94636 24.764923,4.29801 C28.223884,5.91893 32.85368,9.71309 35.297899,12.92987 C38.257679,16.82514 39.658718,21.95024 39.109591,26.87485 C38.403598,33.20625 34.524549,37.826 28.716312,39.2531 C26.655433,39.7594 22.270998,39.8086 20.047418,39.3501 C16.160813,38.5492 12.927732,36.6575 9.455702,33.15218 C1.7907944,25.41379 -0.1781484,16.5719 4.2531142,9.79165 C5.367975,8.08578 8.029633,5.50302 9.656647,4.54855 C10.430286,4.0947 11.786667,3.47103 12.670827,3.16265 C14.132809,2.65275 14.533172,2.60177 17.091624,2.60032 L17.091624,2.60065 Z M16.256769,4.40382 L16.256769,4.40682 L16.256769,4.40382 Z M16.256769,4.40682 L16.221609,5.53494 C16.200549,6.22137 16.07643,6.75752 15.905739,6.89917 C15.724262,7.04978 14.95829,7.11214 13.745577,7.07468 L11.866738,7.01658 L11.742409,6.31328 C11.641181,5.7403 11.613242,5.70761 11.5917,6.13776 C11.55428,6.88461 11.217637,7.08407 9.850388,7.16824 L8.651613,7.24204 L9.867332,7.28004 C10.535982,7.30094 11.191562,7.42654 11.324186,7.55917 C11.5763,7.81128 11.670535,11.02927 11.443194,11.62172 C11.343574,11.88131 10.964188,11.93978 9.373457,11.93978 C8.126454,11.93978 7.339102,11.85298 7.184712,11.69864 C7.052088,11.56602 6.927614,10.91043 6.908098,10.24179 L6.872618,9.02607 L6.757387,10.43269 L6.642157,11.8393 L5.838376,11.96144 C5.152268,12.06575 5.12285,12.08832 5.637431,12.11529 C6.710881,12.17149 6.762339,12.29073 6.699628,14.56839 L6.642158,16.66199 L5.235541,16.77188 L3.8289237,16.88209 L5.235541,16.97279 L6.642158,17.06379 L6.642158,19.17372 L6.642158,21.28364 L5.436486,21.37344 L4.2308143,21.46324 L5.436486,21.57439 L6.642158,21.68553 L6.699938,23.66736 C6.748538,25.33415 6.704138,25.6883 6.420496,25.89565 C6.109641,26.12293 6.109127,26.15206 6.412896,26.26866 C6.616446,26.34676 6.753008,26.64737 6.769904,27.05454 C6.792814,27.60624 6.812554,27.63186 6.889828,27.21153 C7.058252,26.29551 7.276045,26.2068 9.358015,26.2068 C10.962958,26.2068 11.343436,26.2647 11.443137,26.52455 C11.680992,27.14439 11.575841,30.16731 11.308744,30.38898 C11.167777,30.50596 10.602638,30.63637 10.052836,30.67878 L9.053141,30.75598 L10.187228,30.79208 C11.466559,30.83298 11.545924,30.92322 11.599183,32.40215 C11.631643,33.30339 11.637543,33.293 11.749892,32.13464 L11.866376,30.92897 L13.859191,30.87087 C15.318118,30.82847 15.895957,30.88227 16.016202,31.07181 C16.106532,31.21419 16.181942,32.11105 16.18355,33.06462 C16.18625,34.63701 16.14463,34.8276 15.734573,35.11364 C15.370927,35.3673 15.348951,35.43107 15.620903,35.43955 C15.806865,35.44555 16.022954,35.65204 16.101291,35.89889 L16.243833,36.3479 L16.409943,35.89889 C16.566471,35.47572 16.689659,35.45022 18.570089,35.45022 C20.812189,35.45022 20.78531,35.43122 20.842668,37.0239 C20.875128,37.9251 20.881028,37.9147 20.993377,36.7564 L21.109861,35.55069 L23.159182,35.49359 L25.208519,35.43649 L25.317785,36.0965 C25.377665,36.4595 25.455746,37.0729 25.491402,37.4597 C25.533042,37.9115 25.587582,37.6959 25.644008,36.8569 L25.731908,35.55077 L27.741362,35.55077 L29.750815,35.55077 L29.873279,36.3545 C29.940489,36.7966 30.008234,36.949 30.023972,36.693 C30.087472,35.65722 30.37553,35.45238 31.817739,35.41859 L33.166886,35.38689 L31.827143,35.26789 C31.090076,35.20239 30.412118,35.07385 30.320696,34.98217 C30.048021,34.7087 29.986532,31.72835 30.243756,31.24773 C30.460472,30.84277 30.604622,30.81798 32.42464,30.87158 L34.372556,30.92908 L34.487481,32.43617 C34.600331,33.92137 34.602518,33.92631 34.63819,32.77464 C34.68698,31.19998 34.909369,30.83408 35.836644,30.80537 L36.582955,30.78247 L35.808383,30.63271 C35.382427,30.55041 34.954654,30.35749 34.857349,30.20381 C34.583581,29.7715 34.636196,26.93658 34.925159,26.55383 C35.102103,26.31947 35.562429,26.20077 36.482485,26.15225 L37.78863,26.08315 L36.439483,26.04455 C34.794271,25.99735 34.673977,25.84095 34.673977,23.74655 C34.673977,21.8728 34.855889,21.62201 36.28154,21.52987 L37.386739,21.45857 L36.238537,21.42117 C34.819188,21.37527 34.673977,21.16231 34.673977,19.12474 C34.673977,17.64809 34.864618,17.12091 35.477758,16.90178 C35.718957,16.81558 35.710501,16.79077 35.434758,16.77807 C35.017981,16.75887 34.684766,16.1866 34.643837,15.41918 C34.624307,15.05306 34.571107,15.17252 34.493128,15.75765 L34.372561,16.6619 L32.424645,16.7194 C30.623307,16.7724 30.459384,16.745 30.251622,16.35676 C30.020744,15.92535 30.102408,12.62615 30.350202,12.37835 C30.420872,12.30765 30.948215,12.19285 31.521665,12.12309 L32.564057,11.99624 L31.516328,11.96794 C30.304226,11.93524 30.072447,11.67632 30.018642,10.29507 C29.989172,9.5386 29.969932,9.58185 29.867933,10.63354 L29.750822,11.83921 L27.741369,11.83921 L25.731915,11.83921 L25.731915,9.63792 C25.731915,7.46105 25.737515,7.43478 26.234279,7.29659 C26.698028,7.1676 26.702722,7.15558 26.294559,7.13709 C26.051383,7.12609 25.763051,6.95875 25.653431,6.76534 C25.464157,6.43144 25.440429,6.43186 25.187801,6.77334 C24.958755,7.0831 24.656244,7.12503 23.015694,7.07476 L21.11017,7.01636 L20.992126,5.91116 C20.887394,4.9299 20.870498,4.89721 20.841417,5.62136 C20.785357,7.01695 20.575671,7.14161 18.393951,7.07476 L16.488427,7.01636 L16.372264,5.71021 L16.256769,4.40682 Z M19.38462,7.34282 C20.16911,7.34782 20.392722,7.42792 20.554813,7.64957 C20.895455,8.11546 20.900744,11.36586 20.561413,11.70522 C20.390883,11.87574 19.716976,11.93529 18.40125,11.89611 L16.488492,11.83931 L16.488492,9.62891 L16.488492,7.41852 L18.394659,7.36012 C18.799283,7.34772 19.123126,7.34112 19.384629,7.34282 L19.38462,7.34282 Z M24.006362,7.34282 C24.790853,7.34782 25.014465,7.42792 25.176556,7.64957 C25.488889,8.07673 25.520156,10.99484 25.218626,11.55827 C25.026683,11.91691 24.823713,11.94873 23.058464,11.89674 L21.110227,11.83924 L21.110227,9.62884 L21.110227,7.41845 L23.016394,7.36005 C23.421018,7.34765 23.744861,7.34105 24.006363,7.34275 L24.006362,7.34282 Z M14.569455,7.35082 C15.305011,7.35982 15.770256,7.42282 15.906368,7.53575 C16.10831,7.70335 16.187065,8.26733 16.187065,9.53673 C16.187065,10.50884 16.130925,11.45022 16.062415,11.62876 C15.956991,11.90352 15.625141,11.94451 13.902252,11.89627 L11.86674,11.83947 L11.86674,9.62907 L11.86674,7.41867 L13.746206,7.36057 C14.049376,7.35157 14.324269,7.34797 14.569455,7.35057 L14.569455,7.35082 Z M13.944338,12.13112 C14.85229,12.12212 15.76717,12.20322 15.945931,12.38199 C16.278214,12.71432 16.27307,16.19465 15.939631,16.52806 C15.769117,16.69858 15.095194,16.75814 13.779469,16.71896 L11.86671,16.66216 L11.80895,14.68222 C11.7714,13.39504 11.83293,12.60417 11.984464,12.42158 C12.135575,12.23952 13.036373,12.14025 13.944308,12.13115 L13.944338,12.13112 Z M9.221496,12.14112 C10.401575,12.14112 11.171341,12.22942 11.324188,12.38225 C11.476408,12.53447 11.565322,13.29767 11.565322,14.45199 C11.565322,15.60631 11.476412,16.36951 11.324188,16.52173 C11.171341,16.67458 10.401575,16.76286 9.221496,16.76286 C6.988672,16.76286 6.943579,16.71726 6.943579,14.45199 C6.943579,12.1867 6.988669,12.14112 9.221496,12.14112 L9.221496,12.14112 Z M18.616317,12.14112 L18.616317,12.14112 C20.167358,12.14112 20.419713,12.19052 20.601287,12.52982 C20.873078,13.03751 20.869911,15.87181 20.597287,16.38138 C20.40536,16.74002 20.202389,16.77184 18.437124,16.71985 L16.488581,16.66235 L16.430801,14.68241 C16.393251,13.39523 16.454781,12.60436 16.606314,12.42178 C16.773742,12.22004 17.339684,12.14108 18.616089,12.14108 L18.616317,12.14112 Z M23.264119,12.14412 C24.791641,12.14112 25.04189,12.19062 25.223336,12.52969 C25.495126,13.03738 25.492265,15.87167 25.219636,16.38124 C25.027709,16.73988 24.824722,16.7717 23.059474,16.71971 L21.110931,16.66221 L21.053481,14.56861 C21.011091,13.02909 21.064251,12.43177 21.254426,12.31112 C21.396647,12.22092 22.30103,12.14569 23.264201,12.14408 L23.264119,12.14412 Z M27.640949,12.14812 C28.459247,12.13732 29.298684,12.17292 29.533613,12.26303 C29.794778,12.36325 29.851348,12.75169 29.851348,14.44015 C29.851348,15.57036 29.788108,16.55838 29.710686,16.63579 C29.633286,16.71319 28.706426,16.75067 27.650996,16.71929 L25.731968,16.66249 L25.674838,14.56889 C25.632448,13.02936 25.685608,12.43205 25.875783,12.31139 C26.025865,12.21619 26.822654,12.15891 27.640951,12.14813 L27.640949,12.14812 Z M9.221496,16.9639 C10.401575,16.9639 11.171341,17.0522 11.324188,17.20503 C11.47435,17.35519 11.565322,18.09812 11.565322,19.17429 C11.565322,20.25047 11.474352,20.9934 11.324188,21.14356 C11.171341,21.29641 10.401575,21.38469 9.221496,21.38469 C7.000937,21.38469 6.943579,21.32919 6.943579,19.17429 C6.943579,17.01939 7.000939,16.9639 9.221496,16.9639 L9.221496,16.9639 Z M19.38462,16.9887 C20.16911,16.9937 20.392722,17.0738 20.554813,17.29546 C20.866117,17.7212 20.896854,20.4427 20.596883,21.00321 C20.40494,21.36185 20.201969,21.39367 18.43672,21.34168 L16.488483,21.28418 L16.488483,19.17425 L16.488483,17.06433 L18.39465,17.00593 C18.799274,16.99353 19.123117,16.98693 19.38462,16.98863 L19.38462,16.9887 Z M24.006362,16.9887 C24.790853,16.9937 25.014465,17.0738 25.176556,17.29546 C25.48786,17.7212 25.518597,20.4427 25.218626,21.00321 C25.026683,21.36185 24.823713,21.39367 23.058464,21.34168 L21.110227,21.28418 L21.110227,19.17425 L21.110227,17.06433 L23.016394,17.00593 C23.421018,16.99353 23.744861,16.98693 24.006363,16.98863 L24.006362,16.9887 Z M31.651063,16.98934 C31.871234,16.99134 32.122786,16.99834 32.409945,17.00664 L34.372618,17.06444 L34.431338,18.95835 C34.463378,20 34.443238,20.97207 34.387068,21.11852 C34.312088,21.31388 33.77322,21.38477 32.363163,21.38477 C30.117414,21.38477 30.100341,21.36817 30.100341,19.17437 C30.100341,17.22884 30.109841,16.97685 31.651061,16.9894 L31.651063,16.98934 Z M14.569455,16.99634 C15.305011,17.00534 15.770256,17.06834 15.906368,17.18127 C16.270819,17.48374 16.30371,20.78557 15.945928,21.14335 C15.670648,21.41862 12.424272,21.47688 12.009923,21.21405 C11.820391,21.09381 11.766586,20.51595 11.808977,19.05702 L11.866737,17.06421 L13.746203,17.00611 C14.049373,16.99711 14.324266,16.99351 14.569452,16.99611 L14.569455,16.99634 Z M25.731968,17.06414 L27.741422,17.06414 L29.750875,17.06414 L29.809595,18.95805 C29.841635,19.9997 29.820525,20.97497 29.762795,21.12544 C29.681985,21.33607 29.206064,21.38577 27.694955,21.34145 L25.73196,21.28395 L25.73196,19.17403 L25.731968,17.06414 Z M30.450101,21.57065 L32.411215,21.62845 L34.372618,21.68595 L34.430718,23.67877 C34.473128,25.13769 34.419308,25.71555 34.229773,25.83579 C33.872765,26.06229 30.823926,26.04326 30.458592,25.81219 C30.084013,25.57533 29.923482,22.93788 30.234401,22.13081 L30.450101,21.57065 Z M9.221496,21.58545 C10.401575,21.58545 11.171341,21.67375 11.324188,21.82659 C11.47435,21.97675 11.565322,22.71968 11.565322,23.79585 C11.565322,24.87203 11.474352,25.61495 11.324188,25.76511 C11.171341,25.91796 10.401575,26.00625 9.221496,26.00625 C7.000937,26.00625 6.943579,25.95075 6.943579,23.79585 C6.943579,21.64095 7.000939,21.58545 9.221496,21.58545 L9.221496,21.58545 Z M19.38462,21.61025 C20.16911,21.61525 20.392722,21.69535 20.554813,21.917 C20.864076,22.33995 20.897963,25.06259 20.600963,25.61754 C20.419517,25.95657 20.169284,26.00577 18.641746,26.0031 C17.678591,26.0011 16.774047,25.9261 16.631666,25.83575 C16.442134,25.71551 16.388329,25.13766 16.43072,23.67873 L16.48848,21.68591 L18.394647,21.62751 C18.799271,21.61511 19.123114,21.60851 19.384617,21.61021 L19.38462,21.61025 Z M24.006362,21.61025 C24.790853,21.61525 25.014465,21.69535 25.176556,21.917 C25.478665,22.33016 25.518082,24.74592 25.234946,25.49069 C25.044981,25.99029 24.984504,26.00607 23.275424,26.0031 C22.305629,26.0011 21.395797,25.9261 21.253415,25.83575 C21.063884,25.71551 21.010079,25.13766 21.05247,23.67873 L21.11023,21.68591 L23.016397,21.62751 C23.421021,21.61511 23.744864,21.60851 24.006366,21.61021 L24.006362,21.61025 Z M14.569455,21.61825 C15.305011,21.62725 15.770256,21.69025 15.906368,21.80318 C16.270819,22.10565 16.30371,25.40748 15.945928,25.76526 C15.588148,26.12304 12.286954,26.08952 11.984491,25.72506 C11.833879,25.54358 11.771521,24.7776 11.808977,23.5649 L11.866737,21.68606 L13.746203,21.62796 C14.049373,21.61896 14.324266,21.61536 14.569452,21.61796 L14.569455,21.61825 Z M25.731968,21.68605 L27.741422,21.68605 L29.750875,21.68605 L29.808975,23.67886 C29.851385,25.13779 29.797565,25.71565 29.608029,25.83589 C29.465647,25.92619 28.625583,26.0001 27.741424,26.0001 C26.857264,26.0001 26.017538,25.9262 25.875156,25.83589 C25.685624,25.71565 25.631819,25.13779 25.674211,23.67886 L25.731968,21.68605 Z M24.136977,26.22961 C24.955339,26.23261 25.076469,26.32281 25.239025,26.62648 C25.577433,27.25879 25.414378,30.18766 25.0271,30.43251 C24.659853,30.66469 21.611753,30.68498 21.253411,30.45761 C21.06388,30.33737 21.010075,29.75951 21.052466,28.30059 L21.110226,26.30777 L23.058463,26.25027 C23.513468,26.23687 23.86419,26.22847 24.136977,26.22957 L24.136977,26.22961 Z M31.346204,26.22961 C31.618992,26.22861 31.969698,26.23661 32.424702,26.25031 L34.372618,26.30781 L34.430718,28.30063 C34.473128,29.75955 34.419308,30.33741 34.229773,30.45765 C33.871447,30.685 30.823299,30.66471 30.456084,30.43255 C30.06879,30.1877 29.90604,27.25884 30.244448,26.62652 C30.406973,26.3228 30.527845,26.23298 31.346207,26.22965 L31.346204,26.22961 Z M14.569455,26.24001 C15.305011,26.24901 15.770256,26.31201 15.906368,26.42494 C16.325733,26.77299 16.297778,29.88604 15.871518,30.31229 C15.445273,30.73855 12.332533,30.7662 11.984496,30.34679 C11.833884,30.16532 11.771526,29.39933 11.808982,28.18663 L11.866742,26.30779 L13.746208,26.24969 C14.049378,26.24069 14.324271,26.23709 14.569457,26.23969 L14.569455,26.24001 Z M19.191198,26.24001 C19.926754,26.24901 20.391999,26.31201 20.528111,26.42494 C20.947476,26.77299 20.919521,29.88604 20.493261,30.31229 C20.067016,30.73855 16.954276,30.7662 16.606239,30.34679 C16.455626,30.16532 16.393269,29.39933 16.430725,28.18663 L16.488485,26.30779 L18.367951,26.24969 C18.671121,26.24069 18.946014,26.23709 19.1912,26.23969 L19.191198,26.24001 Z M25.731968,26.30781 L27.741422,26.30781 L29.750875,26.30781 L29.808975,28.30062 C29.851385,29.75955 29.797565,30.33741 29.608029,30.45765 C29.465647,30.54795 28.625583,30.62186 27.741424,30.62186 C26.857264,30.62186 26.017538,30.54796 25.875156,30.45765 C25.685624,30.33741 25.631819,29.75955 25.674211,28.30062 L25.731968,26.30781 Z M23.775902,30.85546 C25.329821,30.85146 25.420519,31.13123 25.467926,32.8266 L25.504656,34.14468 L25.618632,32.53712 L25.731965,30.92955 L27.741419,30.92955 L29.750872,30.92955 L29.808972,32.92237 C29.851382,34.38129 29.797562,34.95915 29.608026,35.07939 C29.307637,35.26998 26.419635,35.30813 25.949551,35.12779 C25.774729,35.06069 25.631495,34.86302 25.631495,34.68822 C25.631495,34.43832 25.544255,34.46423 25.222081,34.81005 C24.864302,35.19409 24.603233,35.24949 23.162391,35.24679 C22.254906,35.24479 21.395792,35.16979 21.25341,35.07944 C21.063879,34.9592 21.010074,34.38134 21.052465,32.92242 L21.110225,30.9296 L23.016392,30.8712 C23.302249,30.8622 23.553913,30.856 23.775901,30.8555 L23.775902,30.85546 Z M19.191198,30.86146 C19.926754,30.87046 20.391999,30.93346 20.528111,31.04639 C20.947476,31.39444 20.919521,34.50749 20.493261,34.93374 C20.257094,35.16993 19.763267,35.24876 18.534044,35.24646 C17.63016,35.24446 16.774052,35.16946 16.631671,35.07912 C16.442139,34.95888 16.388334,34.38102 16.430725,32.92209 L16.488485,30.92928 L18.367951,30.87118 C18.671121,30.86218 18.946014,30.85858 19.1912,30.86118 L19.191198,30.86146 Z M51.198028,48.6524 L48.086205,51.7711 L51.051708,54.7442 C52.085708,53.7096 53.120255,52.6756 54.154754,51.6415 L51.198028,48.6524 Z M56.145672,53.0716 L52.759116,56.759 L53.886307,58.1574 L61.491445,58.1574 L56.145672,53.0716 Z M64.102481,60.5688 L56.376132,60.7248 L59.098942,63.583 L66.82529,63.4269 L64.102481,60.5688 Z M61.309967,65.9943 L64.101854,68.8075 L72.340613,68.8075 L69.548726,65.9943 L61.309967,65.9943 Z M74.626374,71.2189 L66.82529,71.3894 C66.82529,71.6151 71.22191,75.7097 71.785827,76.0092 C72.027234,76.1374 72.253306,76.2352 72.28819,76.2265 C73.440539,75.9384 75.666885,73.6881 75.666885,72.8117 C75.641645,72.2178 74.95385,71.6866 74.626374,71.2189 L74.626374,71.2189 Z" id="Shape"></path>
            </g>
        </g>
    </g>
</svg>
