<?xml version="1.0" encoding="UTF-8" standalone="no"?>
<svg width="31px" height="80px" viewBox="0 0 31 80" version="1.1" xmlns="http://www.w3.org/2000/svg" xmlns:xlink="http://www.w3.org/1999/xlink" xmlns:sketch="http://www.bohemiancoding.com/sketch/ns">
    <!-- Generator: Sketch 3.5.2 (25235) - http://www.bohemiancoding.com/sketch -->
    <title>racket</title>
    <desc>Created with Sketch.</desc>
    <defs></defs>
    <g id="Page-1" stroke="none" stroke-width="1" fill="none" fill-rule="evenodd" sketch:type="MSPage">
        <g id="racket" sketch:type="MSLayerGroup" transform="translate(-28.000000, -6.000000)" fill="#000000">
            <g id="Group" transform="translate(43.500000, 43.752945) rotate(-45.000000) translate(-43.500000, -43.752945) translate(12.914062, 12.714185)" sketch:type="MSShapeGroup">
                <path d="M47.3751479,0.247825736 C47.2590341,0.246461395 47.1426995,0.247143566 47.0261705,0.248091783 C44.7886834,0.276333643 42.4750122,0.830781395 40.1985186,1.92833922 C36.6457308,3.64122171 32.8743631,6.95764155 30.5430329,10.4189271 C29.6031345,11.8143684 29.0852963,12.8315324 28.5424869,14.3493414 C27.6749957,16.7750512 27.5706983,17.6844459 27.5447539,23.0443212 C27.5224058,27.6601327 27.4949329,28.1039938 27.1569752,29.2944223 C26.3166878,32.2542512 25.3045672,33.6907659 20.9402924,38.1192124 L17.4023205,41.7092713 L18.6557084,42.9670574 L19.9088224,44.224707 L23.3986058,40.7132341 C25.3180576,38.7819411 27.3634147,36.8695442 27.9436992,36.4631752 C29.4058763,35.439169 30.2978717,35.0057178 31.906989,34.5377488 C33.8307262,33.9782326 36.0073377,33.7940465 38.8168111,33.9530605 C45.5228948,34.3326202 49.6273339,32.8259783 54.2966307,28.2706344 C57.7027085,24.9476657 59.770494,21.644862 60.7745351,17.9233966 C61.2451718,16.1790865 61.2745751,12.600106 60.8316289,10.9891057 C60.1185714,8.39577984 58.9005674,6.27715597 57.0516991,4.41498047 C54.3594331,1.70331845 50.9744412,0.290706977 47.3751669,0.247832558 L47.3751479,0.247825736 Z M47.3403955,1.95200372 C49.4070091,1.95268589 49.7304064,1.99450295 50.9113363,2.40789147 C51.6255247,2.65789333 52.7211538,3.16351132 53.346068,3.53144682 C54.6603049,4.30525333 56.8105324,6.39912124 57.7110857,7.78208558 C61.2904764,13.2789067 59.6997847,20.4471138 53.5083842,26.7207088 C50.7038195,29.5624744 48.0925132,31.0961302 44.9530856,31.7454202 C43.1569542,32.116862 39.6151387,32.0770233 37.9504447,31.6668341 C33.2587875,30.5098047 30.1257082,26.7645451 29.5554354,21.6316143 C29.1118734,17.6391839 30.2435626,13.4842127 32.6343532,10.3262747 C34.6086931,7.71839814 38.3482216,4.64242977 41.1422286,3.32833736 C43.4720798,2.23253953 44.7412181,1.95079628 47.3403955,1.95227659 L47.3403955,1.95200372 Z M48.0147705,3.41385426 L47.9211857,4.47276031 L47.8273419,5.53166636 L46.2881359,5.57900899 C44.5258326,5.63324155 44.3564654,5.53214388 44.311186,4.40072992 C44.287696,3.81366078 44.2740478,3.8401631 44.1894492,4.63566946 L44.0940856,5.53167318 L42.5548809,5.57901581 C41.2297105,5.61980961 40.9856144,5.58583752 40.8006014,5.3346555 C40.5965374,5.0576738 40.577358,5.05733271 40.4244827,5.3278338 C40.3359235,5.4846307 40.1027737,5.62027349 39.9063454,5.62920992 C39.5766507,5.64421767 39.5804427,5.6539045 39.9550382,5.75850853 C40.3563087,5.8705414 40.3608273,5.8918524 40.3608273,7.65664806 L40.3608273,9.4412676 L38.7376717,9.4412676 L37.1145174,9.4412676 L37.0201666,8.46381271 C36.9377756,7.61120186 36.9222325,7.57613829 36.8984298,8.18941643 C36.8549706,9.3092062 36.6677602,9.51909643 35.6886731,9.54563287 L34.8421005,9.56848558 L35.6843618,9.67131597 C36.1475715,9.72786791 36.5732795,9.82097736 36.6303631,9.87825922 C36.8305175,10.0791584 36.8967415,12.7538468 36.7102502,13.1036025 C36.5424292,13.4183082 36.410005,13.4406016 34.9549572,13.3975907 L33.3812631,13.3509984 L33.2838741,12.6179175 C33.2208875,12.1435566 33.1779149,12.0466952 33.162138,12.3435144 C33.129078,12.9656744 32.8601794,13.4296322 32.5235233,13.4451789 C32.3007877,13.4554797 32.2936986,13.4756037 32.488533,13.5454716 C32.983803,13.7231293 33.137795,14.150516 33.137795,15.3476434 C33.137795,16.9995262 33.0207582,17.1721426 31.8742661,17.2093891 L30.9465362,17.2396775 L31.8392711,17.2974574 C32.990854,17.3721141 33.137795,17.5754691 33.137795,19.0945333 C33.137795,20.7924899 33.0408858,20.9192781 31.7119513,20.9575479 L30.6219045,20.9888595 L31.6769556,21.0448657 C32.4201395,21.0841588 32.791972,21.1804335 32.9349001,21.3704384 C33.1683102,21.6807305 33.2110714,23.9790381 32.9899344,24.3295169 C32.911332,24.4541017 32.5655505,24.6105166 32.2214804,24.677226 L31.5957995,24.7986456 L32.1988991,24.8172006 C32.9479141,24.8404626 33.1275514,25.1371181 33.1669617,26.4137116 C33.1957737,27.3473848 33.1975477,27.3433736 33.2886985,26.1393085 L33.3812699,24.9175002 L34.954964,24.8709079 C36.4251009,24.8274536 36.5412928,24.8475777 36.7163476,25.1758518 C36.924124,25.565494 36.8747155,27.9817011 36.6544553,28.2034065 C36.5806106,28.2777495 36.0329694,28.3819374 35.4375958,28.4350443 L34.3551595,28.5315169 L35.4452049,28.5572347 C36.6101628,28.584658 36.842845,28.7506847 36.894124,29.5903752 C36.9068477,29.7978915 36.9615694,29.6743504 37.0158608,29.316054 L37.1145229,28.6643969 L38.7376771,28.6643969 L40.3608327,28.6643969 L40.4318505,29.723262 C40.4774304,30.4034543 40.5214741,30.5782264 40.5551064,30.2120372 C40.5839116,29.8983752 40.647236,29.4010729 40.6956067,29.1068118 L40.7836208,28.5717445 L42.4389793,28.6180639 L44.09435,28.6643833 L44.1886872,29.6418109 C44.2794418,30.5808868 44.2842071,30.5892775 44.310424,29.8586729 C44.3567583,28.567515 44.334784,28.5829253 46.1458617,28.5829253 C47.6647967,28.5829253 47.7645497,28.603595 47.8910001,28.9466791 L48.0251636,29.3106853 L48.1400566,28.9466791 C48.2033355,28.7465439 48.3781281,28.5789687 48.5283417,28.5742753 C48.7480126,28.5674536 48.7300281,28.5156769 48.4362889,28.3100571 C48.1050616,28.0781736 48.0713647,27.9236484 48.0736111,26.6488899 C48.0749025,25.875827 48.1358229,25.1487287 48.208788,25.0332986 C48.3059174,24.879667 48.7726853,24.8360285 49.9511472,24.8704031 L51.560862,24.9174729 L51.6552006,25.8949346 C51.7459538,26.8340174 51.7507191,26.842449 51.7769374,26.1117966 C51.8199616,24.9128136 51.8838182,24.8396236 52.9172096,24.8064974 L53.8332789,24.7772322 L53.025753,24.714609 C52.5816445,24.6802276 52.1251494,24.5745048 52.0112807,24.4796695 C51.7955316,24.2999516 51.710608,21.8492403 51.9027373,21.346733 C51.9832714,21.1360856 52.2908538,21.0891318 53.5872605,21.0891318 C55.2689896,21.0891318 55.4449043,21.1610462 55.5809485,21.9036775 C55.6433438,22.2444422 55.6593293,22.2236701 55.6778298,21.7763981 C55.6914915,21.4462958 55.8017762,21.2025972 55.9661974,21.1392781 C56.2116291,21.0447498 56.2111873,21.021133 55.9600802,20.8368856 C55.7310146,20.6687715 55.6951006,20.3816664 55.7343519,19.0303752 L55.7810464,17.423693 L56.7549373,17.3335851 L57.728835,17.2434772 L56.7549373,17.170676 L55.7810464,17.0978679 L55.7810464,15.3873253 L55.7810464,13.6767895 L56.9172583,13.6030127 L58.0534633,13.5294816 L56.9172583,13.4401377 L55.7810464,13.3510394 L55.7346238,11.6537445 C55.683987,9.80721798 55.725516,9.71058853 56.5926225,9.66498543 C57.00828,9.64308775 56.9845188,9.6248738 56.4303091,9.54026419 L55.7810457,9.44124713 L55.6879707,8.3008831 L55.5948889,7.16051907 L55.566206,8.14611907 C55.5504373,8.68819907 55.4498925,9.21968496 55.3427683,9.32720186 C55.2180538,9.45235969 54.5820661,9.52269829 53.5747883,9.52269829 C52.2898594,9.52269829 51.9834081,9.47528744 51.9029385,9.26484465 C51.7193012,8.78453519 51.7954201,6.17568992 51.9990674,5.97129798 C52.1061956,5.86377426 52.635747,5.76193984 53.1758552,5.74500155 L54.1578636,5.71416744 L53.1895421,5.65434109 C52.0851349,5.58607628 51.8132102,5.42440186 51.7829811,4.81892775 C51.7655811,4.47019535 51.7430087,4.49669767 51.6612443,4.96122171 L51.5608164,5.53140031 L50.0431667,5.57847008 C49.0635861,5.60889488 48.4448645,5.55827783 48.298275,5.43618977 C48.1603983,5.32134636 48.060139,4.88668775 48.0431284,4.33019349 L48.0147243,3.4135814 L48.0147705,3.41385426 Z M41.7549635,5.79613023 C41.9661948,5.79476589 42.2277827,5.80022326 42.5546213,5.81018295 L44.0940856,5.85752558 L44.0940856,7.64951256 L44.0940856,9.44151318 L42.5203916,9.48810543 C41.0944955,9.53026357 40.9305434,9.50447752 40.7754998,9.21370233 C40.5319359,8.75691411 40.5574391,6.39118078 40.8097357,6.04488372 C40.9406653,5.86517953 41.1212902,5.80041426 41.7549696,5.79619163 L41.7549635,5.79613023 Z M45.4882205,5.79613023 C45.6994511,5.79476589 45.9610383,5.80022326 46.2878769,5.81018295 L47.8273419,5.85752558 L47.8273419,7.64951256 L47.8273419,9.44151318 L46.2825529,9.48755969 C45.219763,9.51934884 44.6754094,9.47105116 44.5376619,9.33279566 C44.2635562,9.0576831 44.267828,6.42254698 44.5429635,6.04484961 C44.673893,5.86514543 44.8545173,5.80037333 45.4881974,5.7961507 L45.4882205,5.79613023 Z M49.3774549,5.80295194 C49.5755057,5.80022326 49.7978002,5.80321116 50.0426889,5.81106977 L51.5605983,5.85820775 L51.5605983,7.65020155 L51.5605983,9.44219535 L49.9163941,9.48824186 C48.5247142,9.52733023 48.2566598,9.49369922 48.1715024,9.2713662 C48.1161622,9.12662326 48.0708148,8.36343814 48.0708148,7.57534016 C48.0708148,6.5462245 48.1346783,6.08899969 48.2977972,5.95313178 C48.4077434,5.86155039 48.7833013,5.81029209 49.3774549,5.80320434 L49.3774549,5.80295194 Z M49.8824118,9.67839008 C50.6158054,9.6856893 51.3434327,9.76624 51.4654943,9.91384806 C51.5878931,10.0618722 51.6376007,10.7030375 51.607267,11.7465606 L51.5605928,13.3517147 L50.0158038,13.3977612 C48.9530139,13.4295504 48.4086467,13.3812527 48.2709114,13.2429972 C48.0015989,12.972694 47.9971836,10.1511684 48.2656099,9.88174512 C48.4100054,9.73681798 49.1490208,9.67098171 49.8824281,9.67835597 L49.8824118,9.67839008 Z M46.1085774,9.68650791 L46.1085774,9.68650791 C47.1396049,9.68650791 47.5967505,9.75056372 47.731992,9.91408 C47.8543901,10.0620974 47.9040977,10.7032626 47.8737639,11.7467926 L47.8270898,13.3519467 L46.2531368,13.3985389 C44.8272271,13.4406971 44.663275,13.414911 44.5082444,13.1241426 C44.2879631,12.711027 44.2854578,10.413231 44.5049819,10.0016434 C44.6516509,9.72657178 44.8554926,9.68651473 46.1083613,9.68651473 L46.1085774,9.68650791 Z M53.6973319,9.68650791 C55.5009146,9.68650791 55.5373248,9.72348155 55.5373248,11.5599597 C55.5373248,13.3964515 55.5008935,13.4334047 53.6973319,13.4334047 C52.7441123,13.4334047 52.1223138,13.3618177 51.9988499,13.2379219 C51.8758931,13.1145104 51.8040712,12.4957749 51.8040712,11.5599597 C51.8040712,10.6241377 51.8758897,10.0054022 51.9988499,9.88199752 C52.1223138,9.75808806 52.7441123,9.68650791 53.6973319,9.68650791 L53.6973319,9.68650791 Z M42.3545179,9.68923659 L42.3545179,9.68923659 C43.132529,9.69060093 43.8630388,9.75151876 43.9779202,9.82464744 C44.1315221,9.92246388 44.174477,10.4067163 44.140235,11.6548291 L44.093826,13.3521309 L42.5198723,13.3987231 C41.0939756,13.4408812 40.9300112,13.4150952 40.7749799,13.1243336 C40.5546986,12.711218 40.5521933,10.413422 40.7717174,10.0018344 C40.9182832,9.72696744 41.1204243,9.68707411 42.3542943,9.68925705 L42.3545179,9.68923659 Z M38.8188331,9.69264744 C39.4798197,9.70137922 40.1236931,9.74776682 40.2449235,9.82501581 C40.3985261,9.92282543 40.441481,10.407071 40.4072397,11.6551907 L40.3608239,13.3524856 L38.8107102,13.3985321 C37.9581782,13.4239771 37.209501,13.3937569 37.1469766,13.3308608 C37.0844385,13.2681011 37.0333559,12.4671169 37.0333559,11.5508391 C37.0333559,10.181982 37.0790717,9.86707163 37.2900229,9.78581829 C37.4797883,9.71277147 38.1578391,9.68390884 38.818827,9.69266109 L38.8188331,9.69264744 Z M53.6973319,13.5968527 C55.4910115,13.5968527 55.5373248,13.641876 55.5373248,15.3888465 C55.5373248,17.1358443 55.491038,17.1808403 53.6973319,17.1808403 C52.7441123,17.1808403 52.1223138,17.1092533 51.9988499,16.9853439 C51.8775556,16.8636037 51.8040712,16.2613085 51.8040712,15.3888465 C51.8040712,14.5163777 51.8775535,13.9140825 51.9988499,13.7923355 C52.1223138,13.6684329 52.7441123,13.5968527 53.6973319,13.5968527 L53.6973319,13.5968527 Z M41.7549635,13.6169767 C41.9661948,13.6156124 42.2277827,13.6210698 42.5546213,13.6310295 L44.0940856,13.6783721 L44.0940856,15.3889079 L44.0940856,17.0994437 L42.5203916,17.146036 C41.0944955,17.1881941 40.9305434,17.1624081 40.7754998,16.8716329 C40.5331953,16.4172186 40.5582704,14.2108744 40.8097357,13.8657234 C40.9406653,13.6860192 41.1212902,13.621254 41.7549696,13.6170313 L41.7549635,13.6169767 Z M45.4882205,13.6169767 C45.6994511,13.6156124 45.9610383,13.6210698 46.2878769,13.6310295 L47.8273419,13.6783721 L47.8273419,15.3889079 L47.8273419,17.0994437 L46.2536479,17.146036 C44.8277519,17.1881941 44.6637997,17.1624081 44.5087562,16.8716329 C44.2664516,16.4172186 44.291526,14.2108744 44.542992,13.8657234 C44.6739216,13.6860192 44.8545458,13.621254 45.488226,13.6170313 L45.4882205,13.6169767 Z M35.5798728,13.6174952 C36.8248713,13.6072626 36.8322473,13.8116068 36.8322473,15.388867 C36.8322473,17.1674152 36.8184428,17.1808608 35.0044181,17.1808608 C33.8654317,17.1808608 33.430166,17.1233538 33.3696031,16.9650084 C33.3242204,16.8462902 33.3082069,16.0582127 33.3340826,15.213747 L33.3812597,13.678338 L34.9668742,13.6314729 C35.1988291,13.6246512 35.4020223,13.6189209 35.579868,13.6174202 L35.5798728,13.6174952 Z M49.3774549,13.6229526 C49.5755057,13.6202239 49.7978002,13.6232186 50.0426889,13.6310704 L51.5605983,13.6782084 L51.6072724,15.2937997 C51.6415151,16.4765674 51.5980558,16.9450412 51.4449569,17.0425234 C51.1102625,17.2556471 48.4879581,17.2084205 48.265599,16.9852211 C47.9765993,16.6951622 48.0034143,14.0183386 48.2978026,13.7731188 C48.4077482,13.6815442 48.7833068,13.6302859 49.3774604,13.6231981 L49.3774549,13.6229526 Z M37.1145201,13.6779355 L38.7376744,13.6779355 L40.3608293,13.6779355 L40.3608293,15.3884713 L40.3608293,17.0990071 L38.7754623,17.1455994 C37.5548489,17.1814816 37.170421,17.1415064 37.1051316,16.9704726 C37.0584915,16.8484868 37.0414653,16.0578307 37.067341,15.2133513 L37.1145181,13.6779423 L37.1145201,13.6779355 Z M36.5499608,17.3314226 L36.7241967,17.7855231 C36.9753439,18.4398202 36.8454393,20.5780291 36.5428703,20.7700533 C36.2477684,20.9573364 33.785039,20.9727671 33.4966632,20.7892223 C33.3435799,20.6917402 33.3000928,20.2232664 33.3343484,19.0404986 L33.3812604,17.4249073 L34.9656154,17.378315 L36.5499581,17.3314499 L36.5499608,17.3314226 Z M53.6973319,17.3434288 C55.4910115,17.3434288 55.5373248,17.3884521 55.5373248,19.1354226 C55.5373248,20.8824273 55.491038,20.9274233 53.6973319,20.9274233 C52.7441123,20.9274233 52.1223138,20.8558363 51.9988499,20.7319336 C51.8775556,20.6101867 51.8040712,20.0078915 51.8040712,19.1354226 C51.8040712,18.2629606 51.8775535,17.6606586 51.9988499,17.5389253 C52.1223138,17.4150022 52.7441123,17.3434288 53.6973319,17.3434288 L53.6973319,17.3434288 Z M41.7549635,17.3635529 C41.9661948,17.3621885 42.2277827,17.3676459 42.5546213,17.3776056 L44.0940856,17.4249482 L44.1407598,19.0405464 C44.1750024,20.2233073 44.1315432,20.6917811 43.9784449,20.7892633 C43.8634343,20.8624738 43.128508,20.923569 42.3451484,20.9249402 C40.9646229,20.9276688 40.9160062,20.9145712 40.7625593,20.5095188 C40.5338499,19.9057228 40.5657027,17.9472453 40.8097364,17.6122927 C40.9406659,17.4325885 41.1212909,17.3678164 41.754971,17.3636006 L41.7549635,17.3635529 Z M45.4882205,17.3635529 C45.6994511,17.3621885 45.9610383,17.3676459 46.2878769,17.3776056 L47.8273419,17.4249482 L47.8740161,19.0405464 C47.9082587,20.2233073 47.8647995,20.6917811 47.7116999,20.7892633 C47.5966913,20.8624738 46.8660368,20.923569 46.0880393,20.9249402 C44.8541557,20.9276688 44.6520282,20.8872161 44.5054631,20.612356 C44.2655613,20.1624509 44.293181,17.9551789 44.5429886,17.6122927 C44.6739182,17.4325885 44.8545424,17.3678164 45.4882232,17.3636006 L45.4882205,17.3635529 Z M49.3774549,17.3703746 C49.5755057,17.3676459 49.7978002,17.3706338 50.0426889,17.3784924 L51.5605983,17.4256304 L51.6075171,18.9488217 C51.6377768,19.9319727 51.5874051,20.5529594 51.4657445,20.7000899 C51.2214267,20.9955516 48.554596,21.0227293 48.265597,20.7326977 C47.9765972,20.4426388 48.0034123,17.7658152 48.2978006,17.5205953 C48.4077468,17.429014 48.7833054,17.3777557 49.3774583,17.3706679 L49.3774549,17.3703746 Z M37.1145201,17.4253575 L38.7376744,17.4253575 L40.3608293,17.4253575 L40.4075034,19.0409488 C40.4417461,20.2237234 40.3982869,20.6921972 40.2451879,20.7896794 C40.1301773,20.8628899 39.4518669,20.9227981 38.7376791,20.9227981 C38.0234907,20.9227981 37.3449349,20.8629036 37.2299243,20.7896794 C37.076841,20.6921972 37.0333539,20.2237234 37.0676081,19.0409488 L37.1145201,17.4253575 L37.1145201,17.4253575 Z M35.8258911,21.1088738 C36.4869293,21.1116025 36.5848002,21.1843491 36.7160805,21.4306195 C36.9894332,21.9432502 36.8577233,24.3177017 36.5448958,24.5162065 C36.2482611,24.7044378 33.7861047,24.720885 33.4966632,24.5365352 C33.3435799,24.4390598 33.3000928,23.9705792 33.3343484,22.7878183 L33.3812604,21.1722133 L34.9549545,21.1256211 C35.3224894,21.1147746 35.6055412,21.1079529 35.8258877,21.1088397 L35.8258911,21.1088738 Z M41.6494583,21.1088738 C41.8698056,21.1081916 42.1528573,21.1143312 42.5203916,21.1256552 L44.0940856,21.1722474 L44.1407598,22.7878524 C44.1750024,23.9706133 44.1315432,24.4390871 43.9784449,24.5365625 C43.6889905,24.720885 41.2271066,24.704431 40.9304584,24.5162338 C40.6176309,24.3177358 40.4856614,21.9432775 40.759014,21.4306536 C40.8903208,21.1844242 40.9884242,21.1116093 41.6494638,21.1089011 L41.6494583,21.1088738 Z M45.6441986,21.1173327 C45.84225,21.114604 46.0645439,21.1175919 46.3094319,21.1254505 L47.8273419,21.1725885 L47.874254,22.6957798 C47.9045137,23.6789309 47.854142,24.2999312 47.7324807,24.4470481 C47.451351,24.787035 44.9369933,24.7646257 44.5926894,24.4190791 C44.2483726,24.0734983 44.2257914,21.5497197 44.5645368,21.2675671 C44.674483,21.1759857 45.0500423,21.1247138 45.6441945,21.117626 L45.6441986,21.1173327 Z M49.3774549,21.1173327 C49.5755057,21.114604 49.7978002,21.1175919 50.0426889,21.1254505 L51.5605983,21.1725885 L51.6075171,22.6957798 C51.6377768,23.6789309 51.5874051,24.2999312 51.4657445,24.4470481 C51.1846135,24.787035 48.6702564,24.7646257 48.3259525,24.4190791 C47.9816351,24.0734983 47.9590545,21.5497197 48.2977999,21.2675671 C48.4077461,21.1759857 48.7833047,21.1247138 49.3774576,21.117626 L49.3774549,21.1173327 Z M37.1145201,21.1723157 L38.7376744,21.1723157 L40.3608293,21.1723157 L40.4075034,22.787907 C40.4417461,23.9706747 40.3982869,24.4391485 40.2451879,24.5366239 C40.1301773,24.6098344 39.4518669,24.6697563 38.7376791,24.6697563 C38.0234907,24.6697563 37.3449349,24.6098617 37.2299243,24.5366239 C37.076841,24.4391485 37.0333539,23.9706747 37.0676081,22.787907 L37.1145201,21.1723157 L37.1145201,21.1723157 Z M41.9411204,24.8591405 C42.1204328,24.8595293 42.3237172,24.8645978 42.5546213,24.8718971 L44.0940856,24.9192397 L44.1407598,26.5348378 C44.1750024,27.7175988 44.1315432,28.1860726 43.9784449,28.2835547 C43.8634343,28.3567653 43.1697242,28.4178605 42.4366942,28.4192316 C41.2728401,28.4219603 41.0619603,28.3765278 40.7729605,28.0651578 C40.5127238,27.7847994 40.4419928,27.7637885 40.4419928,27.9663932 C40.4419928,28.1081005 40.3265411,28.2683696 40.1853265,28.3227522 C39.8056123,28.468996 37.4725673,28.4380664 37.229925,28.2835274 C37.0768417,28.1860453 37.0333546,27.7175715 37.0676088,26.5348105 L37.1145208,24.9192124 L38.7376757,24.9192124 L40.3608307,24.9192124 L40.452636,26.2224856 L40.5447011,27.5257519 L40.5743694,26.4571727 C40.612663,25.0827082 40.6859259,24.8562208 41.9411184,24.8591473 L41.9411204,24.8591405 Z M45.6441986,24.8639157 C45.84225,24.861187 46.0645439,24.8641817 46.3094319,24.8720335 L47.8273419,24.9191033 L47.8740161,26.5346946 C47.9082587,27.7174623 47.8647995,28.1859361 47.7116999,28.2834183 C47.5966913,28.3566288 46.9053948,28.417724 46.1752745,28.4190952 C45.1823577,28.4204595 44.7834641,28.3570859 44.5926983,28.1655665 C44.2483815,27.8199926 44.2258002,25.296214 44.5645456,25.0140546 C44.6744918,24.9224732 45.0500511,24.8712081 45.6442034,24.8641203 L45.6441986,24.8639157 Z M15.7938746,42.8699163 L11.4757765,46.9930233 L17.618911,46.9930233 L18.5293959,45.8591876 L15.7938746,42.8699163 L15.7938746,42.8699163 Z M9.36668712,48.9478512 L7.16731284,51.2650481 L13.4083435,51.3915225 L15.6077178,49.0743938 L9.36668712,48.9478512 L9.36668712,48.9478512 Z M4.96743152,53.3464868 L2.71225905,55.6271194 L9.36719348,55.6271194 L11.622366,53.3464868 L4.96743152,53.3464868 L4.96743152,53.3464868 Z M0.865927516,57.5820155 C0.601404832,57.9611659 0.0458186859,58.3918202 0.0254317313,58.8733643 C0.0254317313,59.583845 1.82404309,61.4081736 2.75486336,61.6418171 C2.78303573,61.6500031 2.96565342,61.5696434 3.16065318,61.4656124 C3.6161618,61.2228279 7.16731284,57.9032496 7.16731284,57.7202233 L0.865927516,57.5820155 L0.865927516,57.5820155 Z" id="Shape"></path>
            </g>
        </g>
    </g>
</svg>